<svg xmlns="http://www.w3.org/2000/svg" xmlns:xlink="http://www.w3.org/1999/xlink" width="480" zoomAndPan="magnify" viewBox="0 0 360 359.999987" height="480" preserveAspectRatio="xMidYMid meet" version="1.0"><defs><clipPath id="f2cc2875fe"><path d="M 180 0 C 80.589844 0 0 80.589844 0 180 C 0 279.410156 80.589844 360 180 360 C 279.410156 360 360 279.410156 360 180 C 360 80.589844 279.410156 0 180 0 Z M 180 0 " clip-rule="nonzero"/></clipPath><clipPath id="bde712d039"><path d="M 0 0 L 360 0 L 360 360 L 0 360 Z M 0 0 " clip-rule="nonzero"/></clipPath><clipPath id="03a25dbd30"><path d="M 180 0 C 80.589844 0 0 80.589844 0 180 C 0 279.410156 80.589844 360 180 360 C 279.410156 360 360 279.410156 360 180 C 360 80.589844 279.410156 0 180 0 Z M 180 0 " clip-rule="nonzero"/></clipPath><clipPath id="1342e53552"><rect x="0" width="360" y="0" height="360"/></clipPath><clipPath id="5fdb209ebf"><path d="M 72.597656 182.023438 L 287.097656 182.023438 L 287.097656 289.273438 L 72.597656 289.273438 Z M 72.597656 182.023438 " clip-rule="nonzero"/></clipPath><clipPath id="d0c26adbc2"><path d="M 157 70.71875 L 208 70.71875 L 208 177 L 157 177 Z M 157 70.71875 " clip-rule="nonzero"/></clipPath><clipPath id="2052f24711"><path d="M 78.394531 139 L 178 139 L 178 191 L 78.394531 191 Z M 78.394531 139 " clip-rule="nonzero"/></clipPath><clipPath id="84ce88241b"><path d="M 188 139 L 286.894531 139 L 286.894531 191 L 188 191 Z M 188 139 " clip-rule="nonzero"/></clipPath></defs><g clip-path="url(#f2cc2875fe)"><g><g clip-path="url(#1342e53552)"><g clip-path="url(#bde712d039)"><g clip-path="url(#03a25dbd30)"><rect x="-79.2" width="518.4" fill="#054569" height="518.399981" y="-79.199997" fill-opacity="1"/></g></g></g></g></g><g clip-path="url(#5fdb209ebf)"><path fill="#3c80a6" d="M 117.90625 220.753906 C 115.136719 220.753906 114.234375 216.996094 116.53125 215.660156 C 115.566406 213.828125 114.671875 211.949219 113.863281 210.03125 L 108.304688 211.867188 L 113.535156 209.238281 C 112.753906 207.324219 112.054688 205.367188 111.4375 203.371094 C 108.046875 204.246094 106.664062 199.011719 110.023438 198.09375 C 109.277344 194.796875 108.757812 191.417969 108.480469 187.96875 L 72.894531 182.175781 L 163.933594 182.175781 C 163.933594 191.042969 171.125 198.234375 179.992188 198.234375 C 188.859375 198.234375 196.054688 191.042969 196.054688 182.175781 L 287.09375 182.175781 L 251.507812 187.96875 C 251.230469 191.417969 250.707031 194.796875 249.960938 198.09375 C 253.320312 199.011719 251.941406 204.246094 248.550781 203.371094 C 247.933594 205.367188 247.234375 207.324219 246.453125 209.238281 L 251.6875 211.867188 L 246.125 210.03125 C 245.316406 211.949219 244.421875 213.828125 243.457031 215.660156 C 246.484375 217.429688 243.703125 222.113281 240.71875 220.386719 C 238.359375 224.128906 235.667969 227.632812 232.679688 230.867188 L 242.964844 245.148438 L 228.679688 234.859375 C 225.449219 237.847656 221.945312 240.542969 218.207031 242.902344 C 219.925781 245.890625 215.246094 248.664062 213.480469 245.640625 C 211.652344 246.605469 209.769531 247.5 207.847656 248.304688 L 209.6875 253.867188 L 207.058594 248.636719 C 205.144531 249.414062 203.1875 250.113281 201.191406 250.734375 C 202.066406 254.125 196.828125 255.5 195.914062 252.144531 C 192.617188 252.890625 189.238281 253.410156 185.789062 253.6875 L 179.992188 289.273438 L 174.199219 253.6875 C 170.75 253.410156 167.371094 252.890625 164.074219 252.144531 C 163.15625 255.5 157.914062 254.121094 158.792969 250.734375 C 156.800781 250.113281 154.84375 249.414062 152.929688 248.636719 L 150.296875 253.867188 L 152.136719 248.304688 C 150.214844 247.5 148.339844 246.601562 146.511719 245.640625 C 144.742188 248.664062 140.058594 245.886719 141.78125 242.902344 C 138.042969 240.542969 134.535156 237.847656 131.304688 234.863281 L 117.023438 245.148438 L 127.304688 230.855469 C 124.320312 227.632812 121.625 224.128906 119.269531 220.386719 C 118.867188 220.621094 118.40625 220.753906 117.90625 220.753906 Z M 81.484375 182.335938 L 160.628906 195.21875 C 158.390625 191.90625 156.984375 187.992188 156.695312 183.769531 Z M 117.015625 215.4375 C 119.792969 214.46875 121.855469 218.195312 119.699219 220.078125 C 122.027344 223.769531 124.679688 227.230469 127.621094 230.421875 L 144.210938 207.378906 C 143.527344 206.410156 142.878906 205.414062 142.273438 204.386719 L 126.972656 213.222656 L 126.597656 212.566406 L 141.894531 203.734375 C 141.425781 202.902344 140.980469 202.054688 140.5625 201.195312 L 114.367188 209.863281 C 115.171875 211.765625 116.054688 213.625 117.015625 215.4375 Z M 242.972656 215.4375 C 240.191406 214.472656 238.125 218.195312 240.289062 220.078125 C 237.960938 223.773438 235.308594 227.230469 232.367188 230.421875 L 215.777344 207.378906 C 216.460938 206.410156 217.109375 205.414062 217.710938 204.386719 L 233.011719 213.21875 L 233.390625 212.566406 L 218.089844 203.734375 C 218.5625 202.902344 219.007812 202.054688 219.421875 201.195312 L 245.621094 209.863281 C 244.820312 211.765625 243.933594 213.625 242.972656 215.4375 Z M 202.207031 219.894531 L 211.039062 235.195312 L 210.386719 235.570312 L 201.554688 220.269531 C 200.726562 220.738281 199.878906 221.183594 199.015625 221.601562 L 207.683594 247.796875 C 209.585938 246.996094 211.445312 246.113281 213.257812 245.152344 C 212.300781 242.371094 216.015625 240.304688 217.898438 242.46875 C 221.589844 240.140625 225.050781 237.488281 228.238281 234.542969 L 205.203125 217.957031 C 204.230469 218.644531 203.230469 219.289062 202.207031 219.894531 Z M 191.6875 224.359375 L 196.261719 241.421875 L 195.53125 241.617188 L 190.960938 224.554688 L 190.511719 224.667969 L 185.875 253.144531 C 189.261719 252.867188 192.589844 252.355469 195.824219 251.617188 C 195.617188 248.644531 199.757812 247.65625 201.011719 250.234375 C 202.980469 249.621094 204.921875 248.929688 206.820312 248.15625 L 194.425781 223.507812 C 193.527344 223.820312 192.613281 224.105469 191.6875 224.359375 Z M 222.378906 193.140625 L 239.441406 197.710938 L 239.238281 198.4375 L 222.179688 193.867188 C 221.925781 194.792969 221.640625 195.707031 221.328125 196.605469 L 245.976562 208.996094 C 246.75 207.101562 247.441406 205.164062 248.050781 203.1875 C 245.476562 201.9375 246.460938 197.800781 249.4375 198.003906 C 250.171875 194.765625 250.6875 191.445312 250.964844 188.054688 L 222.488281 192.691406 Z M 169.476562 224.667969 L 169.027344 224.558594 L 164.457031 241.617188 L 163.726562 241.421875 L 168.296875 224.359375 C 167.371094 224.109375 166.460938 223.824219 165.5625 223.507812 L 153.167969 248.15625 C 155.066406 248.929688 157.003906 249.621094 158.980469 250.234375 C 160.230469 247.65625 164.371094 248.644531 164.164062 251.617188 C 167.402344 252.355469 170.722656 252.867188 174.113281 253.144531 Z M 160.972656 221.601562 C 160.109375 221.183594 159.265625 220.738281 158.433594 220.269531 L 149.601562 235.570312 L 148.949219 235.195312 L 157.78125 219.894531 C 156.753906 219.289062 155.753906 218.636719 154.785156 217.953125 L 131.746094 234.542969 C 134.9375 237.488281 138.398438 240.140625 142.089844 242.46875 C 143.972656 240.3125 147.691406 242.371094 146.730469 245.152344 C 148.542969 246.113281 150.402344 246.996094 152.304688 247.796875 Z M 166.761719 208.011719 C 165.367188 199.421875 166.503906 201.707031 163.484375 198.683594 L 121.734375 240.429688 Z M 156.089844 217.015625 C 160.03125 219.730469 164.460938 221.785156 169.210938 223.039062 L 166.957031 209.191406 Z M 179.992188 224.429688 L 179.992188 281.6875 L 193.039062 201.542969 C 189.316406 204.054688 184.828125 205.523438 179.992188 205.523438 Z M 152.972656 195.210938 L 139.128906 192.957031 C 140.382812 197.710938 142.441406 202.136719 145.152344 206.074219 Z M 137.5 192.691406 L 109.023438 188.054688 C 109.300781 191.445312 109.8125 194.765625 110.550781 198.003906 C 113.527344 197.796875 114.511719 201.9375 111.9375 203.1875 C 112.546875 205.164062 113.238281 207.101562 114.011719 208.996094 L 138.660156 196.605469 C 138.347656 195.707031 138.0625 194.792969 137.804688 193.867188 L 120.742188 198.4375 L 120.550781 197.710938 L 137.609375 193.140625 Z M 231.933594 231.65625 L 205.832031 195.398438 C 197.261719 196.800781 199.519531 195.664062 196.503906 198.6875 L 238.253906 240.429688 Z M 220.855469 192.957031 L 207.011719 195.210938 L 214.835938 206.074219 C 217.546875 202.136719 219.605469 197.710938 220.855469 192.957031 Z M 193.027344 209.191406 L 190.777344 223.039062 C 195.53125 221.785156 199.957031 219.730469 203.898438 217.015625 Z M 193.027344 209.191406 " fill-opacity="1" fill-rule="evenodd"/></g><path fill="#fdfff6" d="M 243 103.773438 C 250.457031 102.523438 256.519531 102.359375 259.136719 102.355469 C 258.96875 112.769531 257.640625 124.082031 252.640625 137.050781 C 242.382812 165.796875 212.203125 176.683594 186.324219 177.25 C 201.554688 161.214844 213.667969 137.902344 210.433594 116.417969 C 221.203125 108.683594 234.039062 105.273438 243 103.773438 Z M 243 103.773438 " fill-opacity="1" fill-rule="nonzero"/><g clip-path="url(#d0c26adbc2)"><path fill="#fdfff6" d="M 172.34375 83.128906 C 176.734375 76.972656 180.902344 72.570312 182.753906 70.71875 C 215.09375 103.746094 216.878906 141.816406 182.753906 176.679688 C 176.535156 170.347656 171.121094 163.199219 166.746094 155.476562 C 151.492188 129.574219 156.890625 104.386719 172.34375 83.132812 Z M 172.34375 83.128906 " fill-opacity="1" fill-rule="nonzero"/></g><path fill="#fdfff6" d="M 106.371094 102.355469 C 120.496094 102.519531 139.824219 105.589844 155.078125 116.417969 C 151.496094 137.492188 164.953125 162.714844 179.191406 177.25 C 132.160156 175.625 107.152344 149.179688 106.371094 102.355469 Z M 106.371094 102.355469 " fill-opacity="1" fill-rule="nonzero"/><g clip-path="url(#2052f24711)"><path fill="#fdfff6" d="M 163.183594 186.082031 C 127.613281 200.105469 95.277344 180.878906 78.414062 150.78125 C 87.195312 145.886719 97.390625 141.492188 110.566406 139.234375 C 121.699219 167.296875 148.402344 178.558594 177.203125 180.136719 C 173.882812 181.84375 169.007812 184.101562 163.183594 186.082031 Z M 163.183594 186.082031 " fill-opacity="1" fill-rule="nonzero"/></g><g clip-path="url(#84ce88241b)"><path fill="#fdfff6" d="M 275.808594 166.394531 C 253.542969 194.492188 217.808594 196.375 188.308594 180.136719 C 217.148438 178.578125 243.871094 167.214844 254.941406 139.234375 C 268.105469 141.484375 278.328125 145.890625 287.09375 150.78125 C 285.609375 153.347656 281.742188 159.625 275.804688 166.394531 Z M 275.808594 166.394531 " fill-opacity="1" fill-rule="nonzero"/></g></svg>